<?xml version="1.0" encoding="UTF-8"?>
<svg id="_レイヤー_1" data-name="レイヤー 1" xmlns="http://www.w3.org/2000/svg" viewBox="0 0 1828.84 1961.52">
  <defs>
    <style>
      .cls-1 {
        opacity: .6;
      }

      .cls-2 {
        fill: #1277b8;
      }

      .cls-3 {
        fill: #ffc300;
      }
    </style>
  </defs>
  <g class="cls-1">
    <rect class="cls-2" x="1736.11" y="93.2" width="38.54" height="38.54" transform="translate(1010.82 1706.1) rotate(-68.62)"/>
  </g>
  <path class="cls-2" d="M1753.28,1356.7l62.48,108.22-108.22,62.48-62.48-108.22,108.22-62.48M1755.11,1349.87l-116.88,67.48,67.48,116.88,116.88-67.48-67.48-116.88h0Z"/>
  <path class="cls-2" d="M1628.45,325.94l95.84,25.68-25.68,95.84-95.84-25.68,25.68-95.84M1624.92,319.82l-28.27,105.5,105.5,28.27,28.27-105.5-105.5-28.27h0Z"/>
  <g class="cls-1">
    <rect class="cls-2" x="1120.66" y="741.69" width="137.69" height="137.69" transform="translate(1.17 1622.77) rotate(-68.62)"/>
  </g>
  <g class="cls-1">
    <rect class="cls-2" x="371.93" y="1873.04" width="49.76" height="49.76" transform="translate(-1269.81 906.98) rotate(-47.46)"/>
  </g>
  <g class="cls-1">
    <rect class="cls-3" x="380.02" y="1572.71" width="138.14" height="138.14" transform="translate(-1250.31 1546.16) rotate(-71.48)"/>
  </g>
  <g class="cls-1">
    <rect class="cls-3" x="596.99" y="212.85" width="138.14" height="138.14" transform="translate(-55.83 326.58) rotate(-26.48)"/>
  </g>
  <g class="cls-1">
    <rect class="cls-3" x="33.68" y="444.06" width="38.4" height="38.4" transform="translate(-403.19 366.27) rotate(-71.48)"/>
  </g>
  <path class="cls-3" d="M1441.48,316.05l203.71,68.23-68.23,203.71-203.71-68.23,68.23-203.71M1438.33,309.72l-71.41,213.19,213.19,71.41,71.41-213.19-213.19-71.41h0Z"/>
  <path class="cls-3" d="M23.36,1203.43l18.52,8.08-8.08,18.52-18.52-8.08,8.08-18.52M20.77,1196.85l-12.08,27.68,27.68,12.08,12.08-27.68-27.68-12.08h0Z"/>
  <path class="cls-3" d="M1164.4,410.35l18.52,8.08-8.08,18.52-18.52-8.08,8.08-18.52M1161.82,403.76l-12.08,27.68,27.68,12.08,12.08-27.68-27.68-12.08h0Z"/>
  <path class="cls-2" d="M803.63,1355.82l13.58,5.92-5.92,13.58-13.58-5.92,5.92-13.58M801.05,1349.24l-9.92,22.74,22.74,9.92,9.92-22.74-22.74-9.92h0Z"/>
  <path class="cls-3" d="M280.02,801.46l25.77,3.25-15.7,20.69-10.07-23.94M272.05,795.42l16.78,39.91,26.17-34.49-42.95-5.42h0Z"/>
  <path class="cls-3" d="M494.8,1252.34l15.08,1.9-9.19,12.11-5.89-14.02M486.84,1246.29l12.61,29.98,19.66-25.91-32.27-4.07h0Z"/>
  <path class="cls-3" d="M1494.83,875.34l106.03,18.89-60.66,88.99-45.37-107.88M1486.66,868.8l52.49,124.83,70.19-102.97-122.68-21.86h0Z"/>
  <path class="cls-3" d="M839.25,1670.66l237.25,161.73-287.63,120.95,50.37-282.68M835.68,1662.18l-53.34,299.34,304.57-128.08-251.23-171.26h0Z"/>
  <g class="cls-1">
    <polygon class="cls-3" points="1056.76 1261.29 873.96 1364.32 1058.94 1471.12 1056.76 1261.29"/>
  </g>
  <g class="cls-1">
    <polygon class="cls-3" points="1828.84 628.5 1787.28 634.8 1813.52 667.64 1828.84 628.5"/>
  </g>
  <g class="cls-1">
    <polygon class="cls-3" points="118.75 1862.77 77.18 1869.07 103.42 1901.91 118.75 1862.77"/>
  </g>
  <path class="cls-2" d="M1447.63,1854.09l-1.81,16.24-13.15-9.69,14.97-6.55M1453.56,1846.04l-30.84,13.49,27.1,19.96,3.74-33.45h0Z"/>
  <path class="cls-2" d="M869.43,460.07l-6.57,58.79-47.63-35.08,54.2-23.7M875.36,452.02l-70.07,30.64,61.57,45.36,8.49-76h0Z"/>
  <g class="cls-1">
    <polygon class="cls-2" points="322.7 592.2 222.77 665.95 336.6 715.62 322.7 592.2"/>
  </g>
  <g class="cls-1">
    <polygon class="cls-2" points="1181.27 1563.35 1207.99 1648.33 1268.22 1582.7 1181.27 1563.35"/>
  </g>
  <g class="cls-1">
    <circle class="cls-3" cx="1086.92" cy="703.96" r="12.47"/>
  </g>
  <g class="cls-1">
    <ellipse class="cls-3" cx="634.6" cy="1586.33" rx="27.61" ry="31.98"/>
  </g>
  <g class="cls-1">
    <circle class="cls-2" cx="723.68" cy="894.73" r="42.12"/>
  </g>
  <g class="cls-1">
    <circle class="cls-2" cx="1745.45" cy="1046.1" r="27.67"/>
  </g>
  <g class="cls-1">
    <circle class="cls-2" cx="1115.56" cy="137.44" r="137.44"/>
  </g>
  <path class="cls-2" d="M1189.5,1097.23c5.54,0,10.05,4.51,10.05,10.05s-4.51,10.05-10.05,10.05-10.05-4.51-10.05-10.05,4.51-10.05,10.05-10.05M1189.5,1092.23c-8.31,0-15.05,6.74-15.05,15.05s6.74,15.05,15.05,15.05,15.05-6.74,15.05-15.05-6.74-15.05-15.05-15.05h0Z"/>
  <path class="cls-2" d="M452.24,925.17c3.33,0,6.04,2.71,6.04,6.04s-2.71,6.04-6.04,6.04-6.04-2.71-6.04-6.04,2.71-6.04,6.04-6.04M452.24,920.17c-6.1,0-11.04,4.94-11.04,11.04s4.94,11.04,11.04,11.04,11.04-4.94,11.04-11.04-4.94-11.04-11.04-11.04h0Z"/>
  <path class="cls-2" d="M371.64,1128.77c28.47,0,51.63,23.16,51.63,51.63s-23.16,51.63-51.63,51.63-51.63-23.16-51.63-51.63,23.16-51.63,51.63-51.63M371.64,1123.77c-31.28,0-56.63,25.36-56.63,56.63s25.36,56.63,56.63,56.63,56.63-25.36,56.63-56.63-25.36-56.63-56.63-56.63h0Z"/>
  <path class="cls-2" d="M168.3,59.34c43.67,0,84.71,16.16,115.56,45.52,30.79,29.29,47.74,68.2,47.74,109.59s-16.95,80.3-47.74,109.59c-30.85,29.35-71.89,45.52-115.56,45.52s-84.71-16.16-115.56-45.52c-30.79-29.29-47.74-68.2-47.74-109.59s16.95-80.3,47.74-109.59c30.85-29.35,71.89-45.52,115.56-45.52M168.3,54.34C75.35,54.34,0,126.02,0,214.44s75.35,160.1,168.3,160.1,168.3-71.68,168.3-160.1S261.25,54.34,168.3,54.34h0Z"/>
  <path class="cls-3" d="M573.44,591.81c15.74,0,28.55,12.81,28.55,28.55s-12.81,28.55-28.55,28.55-28.55-12.81-28.55-28.55,12.81-28.55,28.55-28.55M573.44,586.81c-18.53,0-33.55,15.02-33.55,33.55s15.02,33.55,33.55,33.55,33.55-15.02,33.55-33.55-15.02-33.55-33.55-33.55h0Z"/>
  <path class="cls-3" d="M1486.66,1261.2c45.62,0,82.74,37.12,82.74,82.74s-37.12,82.74-82.74,82.74-82.74-37.12-82.74-82.74,37.12-82.74,82.74-82.74M1486.66,1256.2c-48.46,0-87.74,39.28-87.74,87.74s39.28,87.74,87.74,87.74,87.74-39.28,87.74-87.74-39.28-87.74-87.74-87.74h0Z"/>
  <g class="cls-1">
    <circle class="cls-3" cx="751.13" cy="861.52" r="24.36"/>
  </g>
  <g class="cls-1">
    <circle class="cls-3" cx="174.39" cy="1033.89" r="88.44"/>
  </g>
  <g class="cls-1">
    <circle class="cls-3" cx="1657.54" cy="1774.32" r="88.44"/>
  </g>
  <g class="cls-1">
    <circle class="cls-2" cx="149.92" cy="1577.81" r="63.97"/>
  </g>
</svg>