<?xml version="1.0" encoding="UTF-8"?>
<svg id="_レイヤー_1" data-name="レイヤー 1" xmlns="http://www.w3.org/2000/svg" viewBox="0 0 1730.27 1574.66">
  <defs>
    <style>
      .cls-1 {
        opacity: .6;
      }

      .cls-2 {
        fill: #1277b8;
      }

      .cls-3 {
        fill: #ffc300;
      }
    </style>
  </defs>
  <path class="cls-2" d="M1660.96,1114.09l62.48,108.22-108.22,62.48-62.48-108.22,108.22-62.48M1662.79,1107.26l-116.88,67.48,67.48,116.88,116.88-67.48-67.48-116.88h0Z"/>
  <path class="cls-2" d="M1357.25,6.12l152.88,40.96-40.96,152.88-152.88-40.96,40.96-152.88M1353.72,0l-43.55,162.54,162.54,43.55,43.55-162.54L1353.72,0h0Z"/>
  <g class="cls-1">
    <rect class="cls-2" x="1137.93" y="417.86" width="90.44" height="90.44" transform="translate(320.68 1396.04) rotate(-68.62)"/>
  </g>
  <g class="cls-1">
    <rect class="cls-2" x="307.42" y="1395.03" width="145.39" height="145.39" transform="translate(-958.26 755.37) rotate(-47.46)"/>
  </g>
  <g class="cls-1">
    <rect class="cls-2" x="1637.38" y="472.27" width="38.54" height="38.54" transform="translate(595.08 1855.06) rotate(-68.62)"/>
  </g>
  <g class="cls-1">
    <rect class="cls-3" x="490.99" y="989.01" width="41.01" height="41.01" transform="translate(-351.33 277.2) rotate(-22.81)"/>
  </g>
  <g class="cls-1">
    <rect class="cls-3" x="729.34" y="1093.79" width="138.14" height="138.14" transform="translate(-557.83 1550.58) rotate(-71.48)"/>
  </g>
  <g class="cls-1">
    <rect class="cls-3" x="549.28" y="89.34" width="138.14" height="138.14" transform="translate(-5.76 292.35) rotate(-26.48)"/>
  </g>
  <g class="cls-1">
    <rect class="cls-3" x="211.37" y="521.11" width="38.4" height="38.4" transform="translate(-354.99 587.33) rotate(-71.48)"/>
  </g>
  <path class="cls-3" d="M1192.23,1056.02l18.52,8.08-8.08,18.52-18.52-8.08,8.08-18.52M1189.65,1049.44l-12.08,27.68,27.68,12.08,12.08-27.68-27.68-12.08h0Z"/>
  <path class="cls-3" d="M49.57,292.37l18.52,8.08-8.08,18.52-18.52-8.08,8.08-18.52M46.99,285.79l-12.08,27.68,27.68,12.08,12.08-27.68-27.68-12.08h0Z"/>
  <path class="cls-3" d="M1070.49,328.89l18.52,8.08-8.08,18.52-18.52-8.08,8.08-18.52M1067.91,322.31l-12.08,27.68,27.68,12.08,12.08-27.68-27.68-12.08h0Z"/>
  <path class="cls-2" d="M574.02,537.7l13.58,5.92-5.92,13.58-13.58-5.92,5.92-13.58M571.44,531.12l-9.92,22.74,22.74,9.92,9.92-22.74-22.74-9.92h0Z"/>
  <path class="cls-2" d="M1052,1311.2l13.58,5.92-5.92,13.58-13.58-5.92,5.92-13.58M1049.42,1304.62l-9.92,22.74,22.74,9.92,9.92-22.74-22.74-9.92h0Z"/>
  <path class="cls-2" d="M12.51,1049.35l13.58,5.92-5.92,13.58-13.58-5.92,5.92-13.58M9.92,1042.76l-9.92,22.74,22.74,9.92,9.92-22.74-22.74-9.92h0Z"/>
  <path class="cls-3" d="M475.83,789.54l25.77,3.25-15.7,20.69-10.07-23.94M467.86,783.49l16.78,39.91,26.17-34.49-42.95-5.42h0Z"/>
  <path class="cls-3" d="M271.73,1221.3l15.08,1.9-9.19,12.11-5.89-14.02M263.77,1215.25l12.61,29.98,19.66-25.91-32.27-4.07h0Z"/>
  <path class="cls-3" d="M1468.04,753.98l106.03,18.89-60.66,88.99-45.37-107.88M1459.87,747.44l52.49,124.83,70.19-102.97-122.68-21.86h0Z"/>
  <path class="cls-3" d="M851.95,1379.26l34.83,184.04-188.46-76.88,153.62-107.16M855.42,1370.74l-167.5,116.83,205.48,83.82-37.98-200.66h0Z"/>
  <g class="cls-1">
    <polygon class="cls-3" points="1323.54 731.14 1262.62 739.73 1301.71 788.66 1323.54 731.14"/>
  </g>
  <g class="cls-1">
    <polygon class="cls-3" points="458.55 281.86 416.99 288.16 443.23 321 458.55 281.86"/>
  </g>
  <g class="cls-1">
    <polygon class="cls-3" points="1168.58 1471.07 1127.01 1477.37 1153.25 1510.22 1168.58 1471.07"/>
  </g>
  <path class="cls-2" d="M719.53,960.35l43.87,5.54-26.73,35.22-17.14-40.76M711.57,954.3l23.85,56.72,37.2-49.02-61.05-7.7h0Z"/>
  <path class="cls-2" d="M1400.49,548.36l-1.81,16.24-13.15-9.69,14.97-6.55M1406.42,540.31l-30.84,13.49,27.1,19.96,3.74-33.45h0Z"/>
  <path class="cls-2" d="M806.23,254.36l-6.57,58.79-47.63-35.08,54.2-23.7M812.16,246.31l-70.07,30.64,61.57,45.36,8.49-76h0Z"/>
  <g class="cls-1">
    <polygon class="cls-2" points="442.91 428.33 342.97 502.08 456.81 551.75 442.91 428.33"/>
  </g>
  <g class="cls-1">
    <polygon class="cls-2" points="1139.68 1236.34 1166.4 1321.32 1226.63 1255.68 1139.68 1236.34"/>
  </g>
  <path class="cls-3" d="M986.81,629.65l11.7,11.7-15.98,4.28,4.28-15.98M984.22,619.99l-8.76,32.71,32.71-8.76-23.94-23.94h0Z"/>
  <g class="cls-1">
    <circle class="cls-3" cx="927.38" cy="504.02" r="12.47"/>
  </g>
  <g class="cls-1">
    <circle class="cls-3" cx="547.29" cy="1351.33" r="12.47"/>
  </g>
  <g class="cls-1">
    <circle class="cls-2" cx="956.36" cy="1031.59" r="8.05"/>
  </g>
  <g class="cls-1">
    <circle class="cls-2" cx="660.47" cy="689.02" r="42.12"/>
  </g>
  <g class="cls-1">
    <circle class="cls-2" cx="1363.33" cy="898.83" r="27.67"/>
  </g>
  <g class="cls-1">
    <circle class="cls-2" cx="1029.68" cy="168.83" r="89.82"/>
  </g>
  <path class="cls-2" d="M1110.64,749.84c5.54,0,10.05,4.51,10.05,10.05s-4.51,10.05-10.05,10.05-10.05-4.51-10.05-10.05,4.51-10.05,10.05-10.05M1110.64,744.84c-8.31,0-15.05,6.74-15.05,15.05s6.74,15.05,15.05,15.05,15.05-6.74,15.05-15.05-6.74-15.05-15.05-15.05h0Z"/>
  <path class="cls-2" d="M237.17,1080.43c3.33,0,6.04,2.71,6.04,6.04s-2.71,6.04-6.04,6.04-6.04-2.71-6.04-6.04,2.71-6.04,6.04-6.04M237.17,1075.43c-6.1,0-11.04,4.94-11.04,11.04s4.94,11.04,11.04,11.04,11.04-4.94,11.04-11.04-4.94-11.04-11.04-11.04h0Z"/>
  <path class="cls-2" d="M340.41,657.19c3.33,0,6.04,2.71,6.04,6.04s-2.71,6.04-6.04,6.04-6.04-2.71-6.04-6.04,2.71-6.04,6.04-6.04M340.41,652.19c-6.1,0-11.04,4.94-11.04,11.04s4.94,11.04,11.04,11.04,11.04-4.94,11.04-11.04-4.94-11.04-11.04-11.04h0Z"/>
  <path class="cls-2" d="M437.77,1025.54c28.47,0,51.63,23.16,51.63,51.63s-23.16,51.63-51.63,51.63-51.63-23.16-51.63-51.63,23.16-51.63,51.63-51.63M437.77,1020.54c-31.28,0-56.63,25.36-56.63,56.63s25.36,56.63,56.63,56.63,56.63-25.36,56.63-56.63-25.36-56.63-56.63-56.63h0Z"/>
  <path class="cls-2" d="M225.42,121.44c55.06,0,99.85,42.5,99.85,94.74s-44.79,94.74-99.85,94.74-99.85-42.5-99.85-94.74,44.79-94.74,99.85-94.74M225.42,116.44c-57.91,0-104.85,44.66-104.85,99.74s46.94,99.74,104.85,99.74,104.85-44.66,104.85-99.74-46.94-99.74-104.85-99.74h0Z"/>
  <path class="cls-3" d="M671.69,413.81c15.74,0,28.55,12.81,28.55,28.55s-12.81,28.55-28.55,28.55-28.55-12.81-28.55-28.55,12.81-28.55,28.55-28.55M671.69,408.81c-18.53,0-33.55,15.02-33.55,33.55s15.02,33.55,33.55,33.55,33.55-15.02,33.55-33.55-15.02-33.55-33.55-33.55h0Z"/>
  <path class="cls-3" d="M1459.87,348.77c43.75,0,79.34,35.59,79.34,79.34s-35.59,79.34-79.34,79.34-79.34-35.59-79.34-79.34,35.59-79.34,79.34-79.34M1459.87,343.77c-46.58,0-84.34,37.76-84.34,84.34s37.76,84.34,84.34,84.34,84.34-37.76,84.34-84.34-37.76-84.34-84.34-84.34h0Z"/>
  <g class="cls-1">
    <circle class="cls-3" cx="687.92" cy="655.81" r="24.36"/>
  </g>
  <g class="cls-1">
    <circle class="cls-3" cx="111.18" cy="828.18" r="88.44"/>
  </g>
  <g class="cls-1">
    <circle class="cls-3" cx="1518.26" cy="1486.22" r="88.44"/>
  </g>
  <g class="cls-1">
    <circle class="cls-2" cx="161.46" cy="1321.32" r="63.97"/>
  </g>
</svg>